<?xml version="1.0" encoding="UTF-8" standalone="no"?>
<!DOCTYPE svg PUBLIC "-//W3C//DTD SVG 1.1//EN"
    "http://www.w3.org/Graphics/SVG/1.1/DTD/svg11.dtd">
<!-- Generated by graphviz version 2.43.0 (0)
 -->
<!-- Title: CodebaseExplorer Pages: 1 -->
<svg width="453pt" height="581pt"
     viewBox="0.00 0.00 453.00 581.00" xmlns="http://www.w3.org/2000/svg">
    <g id="graph0" class="graph" transform="scale(1 1) rotate(0) translate(4 577)">
        <title>CodebaseExplorer</title>
        <polygon fill="white" stroke="transparent" points="-4,4 -4,-577 449,-577 449,4 -4,4"/>
        <g id="clust1" class="cluster">
            <title>cluster_parsing</title>
            <path fill="white" stroke="#2563eb" stroke-width="1.4"
                  d="M20,-358C20,-358 425,-358 425,-358 431,-358 437,-364 437,-370 437,-370 437,-509 437,-509 437,-515 431,-521 425,-521 425,-521 20,-521 20,-521 14,-521 8,-515 8,-509 8,-509 8,-370 8,-370 8,-364 14,-358 20,-358"/>
            <text text-anchor="middle" x="222.5" y="-505.8" font-family="Helvetica,Arial,sans-serif" font-size="14.00">
                1. Parse &amp; Analyze
            </text>
        </g>
        <g id="clust2" class="cluster">
            <title>cluster_storage</title>
            <path fill="white" stroke="#7c3aed" stroke-width="1.4"
                  d="M56,-179C56,-179 373,-179 373,-179 379,-179 385,-185 385,-191 385,-191 385,-338 385,-338 385,-344 379,-350 373,-350 373,-350 56,-350 56,-350 50,-350 44,-344 44,-338 44,-338 44,-191 44,-191 44,-185 50,-179 56,-179"/>
            <text text-anchor="middle" x="214.5" y="-334.8" font-family="Helvetica,Arial,sans-serif" font-size="14.00">
                2. Graph Storage
            </text>
        </g>
        <g id="clust3" class="cluster">
            <title>cluster_ranking</title>
            <path fill="white" stroke="#16a34a" stroke-width="1.4"
                  d="M141,-8C141,-8 289,-8 289,-8 295,-8 301,-14 301,-20 301,-20 301,-159 301,-159 301,-165 295,-171 289,-171 289,-171 141,-171 141,-171 135,-171 129,-165 129,-159 129,-159 129,-20 129,-20 129,-14 135,-8 141,-8"/>
            <text text-anchor="middle" x="215" y="-155.8" font-family="Helvetica,Arial,sans-serif" font-size="14.00">3.
                Analysis &amp; Ranking
            </text>
        </g>
        <!-- sources -->
        <g id="node1" class="node">
            <title>sources</title>
            <polygon fill="#dbeafe" stroke="#2563eb" stroke-width="1.4"
                     points="290.5,-573 159.5,-573 159.5,-529 290.5,-529 290.5,-573"/>
            <text text-anchor="middle" x="225" y="-554.8" font-family="Helvetica,Arial,sans-serif" font-size="14.00">
                Rust Source Files
            </text>
            <text text-anchor="middle" x="225" y="-539.8" font-family="Helvetica,Arial,sans-serif" font-size="14.00">
                (.rs)
            </text>
        </g>
        <!-- syn_parse -->
        <g id="node2" class="node">
            <title>syn_parse</title>
            <polygon fill="#f1f5f9" stroke="#475569" stroke-width="1.4"
                     points="287.5,-486 162.5,-486 162.5,-450 287.5,-450 287.5,-486"/>
            <text text-anchor="middle" x="225" y="-464.3" font-family="Helvetica,Arial,sans-serif" font-size="14.00">syn
                AST Parsing
            </text>
        </g>
        <!-- sources&#45;&gt;syn_parse -->
        <g id="edge1" class="edge">
            <title>sources&#45;&gt;syn_parse</title>
            <path fill="none" stroke="#475569" stroke-width="1.2" d="M225,-528.72C225,-518.73 225,-506.72 225,-496.1"/>
            <polygon fill="#475569" stroke="#475569" stroke-width="1.2"
                     points="228.5,-496.06 225,-486.06 221.5,-496.06 228.5,-496.06"/>
        </g>
        <!-- extract_defs -->
        <g id="node3" class="node">
            <title>extract_defs</title>
            <polygon fill="#f1f5f9" stroke="#475569" stroke-width="1.4"
                     points="214,-414 20,-414 20,-370 214,-370 214,-414"/>
            <text text-anchor="middle" x="117" y="-395.8" font-family="Helvetica,Arial,sans-serif" font-size="14.00">
                Extract Definitions
            </text>
            <text text-anchor="middle" x="117" y="-380.8" font-family="Helvetica,Arial,sans-serif" font-size="14.00">
                (modules, functions, structs)
            </text>
        </g>
        <!-- syn_parse&#45;&gt;extract_defs -->
        <g id="edge2" class="edge">
            <title>syn_parse&#45;&gt;extract_defs</title>
            <path fill="none" stroke="#475569" stroke-width="1.2"
                  d="M199.95,-449.84C186.93,-440.91 170.72,-429.81 156.09,-419.78"/>
            <polygon fill="#475569" stroke="#475569" stroke-width="1.2"
                     points="157.92,-416.8 147.7,-414.03 153.97,-422.57 157.92,-416.8"/>
        </g>
        <!-- extract_deps -->
        <g id="node4" class="node">
            <title>extract_deps</title>
            <polygon fill="#f1f5f9" stroke="#475569" stroke-width="1.4"
                     points="425,-414 243,-414 243,-370 425,-370 425,-414"/>
            <text text-anchor="middle" x="334" y="-395.8" font-family="Helvetica,Arial,sans-serif" font-size="14.00">
                Extract Dependencies
            </text>
            <text text-anchor="middle" x="334" y="-380.8" font-family="Helvetica,Arial,sans-serif" font-size="14.00">
                (calls, imports, definitions)
            </text>
        </g>
        <!-- syn_parse&#45;&gt;extract_deps -->
        <g id="edge3" class="edge">
            <title>syn_parse&#45;&gt;extract_deps</title>
            <path fill="none" stroke="#475569" stroke-width="1.2"
                  d="M250.28,-449.84C263.42,-440.91 279.79,-429.81 294.55,-419.78"/>
            <polygon fill="#475569" stroke="#475569" stroke-width="1.2"
                     points="296.71,-422.54 303.02,-414.03 292.78,-416.75 296.71,-422.54"/>
        </g>
        <!-- db_nodes -->
        <g id="node5" class="node">
            <title>db_nodes</title>
            <polygon fill="#f3e8ff" stroke="#7c3aed" stroke-width="1.4"
                     points="222,-315 56,-315 56,-271 222,-271 222,-315"/>
            <text text-anchor="middle" x="139" y="-296.8" font-family="Helvetica,Arial,sans-serif" font-size="14.00">
                Store Nodes
            </text>
            <text text-anchor="middle" x="139" y="-281.8" font-family="Helvetica,Arial,sans-serif" font-size="14.00">
                (labeled AST elements)
            </text>
        </g>
        <!-- extract_defs&#45;&gt;db_nodes -->
        <g id="edge4" class="edge">
            <title>extract_defs&#45;&gt;db_nodes</title>
            <path fill="none" stroke="#475569" stroke-width="1.2"
                  d="M121.77,-369.95C124.74,-356.86 128.62,-339.79 131.94,-325.15"/>
            <polygon fill="#475569" stroke="#475569" stroke-width="1.2"
                     points="135.44,-325.53 134.24,-315.01 128.61,-323.98 135.44,-325.53"/>
        </g>
        <!-- db_edges -->
        <g id="node6" class="node">
            <title>db_edges</title>
            <polygon fill="#f3e8ff" stroke="#7c3aed" stroke-width="1.4"
                     points="372.5,-315 251.5,-315 251.5,-271 372.5,-271 372.5,-315"/>
            <text text-anchor="middle" x="312" y="-296.8" font-family="Helvetica,Arial,sans-serif" font-size="14.00">
                Store Edges
            </text>
            <text text-anchor="middle" x="312" y="-281.8" font-family="Helvetica,Arial,sans-serif" font-size="14.00">
                (typed relations)
            </text>
        </g>
        <!-- extract_deps&#45;&gt;db_edges -->
        <g id="edge5" class="edge">
            <title>extract_deps&#45;&gt;db_edges</title>
            <path fill="none" stroke="#475569" stroke-width="1.2"
                  d="M329.23,-369.95C326.26,-356.86 322.38,-339.79 319.06,-325.15"/>
            <polygon fill="#475569" stroke="#475569" stroke-width="1.2"
                     points="322.39,-323.98 316.76,-315.01 315.56,-325.53 322.39,-323.98"/>
        </g>
        <!-- db_csr -->
        <g id="node7" class="node">
            <title>db_csr</title>
            <polygon fill="#f3e8ff" stroke="#7c3aed" stroke-width="1.4"
                     points="297,-235 133,-235 133,-191 297,-191 297,-235"/>
            <text text-anchor="middle" x="215" y="-216.8" font-family="Helvetica,Arial,sans-serif" font-size="14.00">
                Build CSR Matrix
            </text>
            <text text-anchor="middle" x="215" y="-201.8" font-family="Helvetica,Arial,sans-serif" font-size="14.00">(in&#45;memory
                adjacency)
            </text>
        </g>
        <!-- db_nodes&#45;&gt;db_csr -->
        <g id="edge6" class="edge">
            <title>db_nodes&#45;&gt;db_csr</title>
            <path fill="none" stroke="#475569" stroke-width="1.2"
                  d="M159.77,-270.69C168.3,-261.93 178.3,-251.67 187.43,-242.3"/>
            <polygon fill="#475569" stroke="#475569" stroke-width="1.2"
                     points="190.05,-244.62 194.52,-235.02 185.04,-239.74 190.05,-244.62"/>
        </g>
        <!-- db_edges&#45;&gt;db_csr -->
        <g id="edge7" class="edge">
            <title>db_edges&#45;&gt;db_csr</title>
            <path fill="none" stroke="#475569" stroke-width="1.2"
                  d="M285.75,-270.89C274.54,-261.87 261.3,-251.23 249.32,-241.6"/>
            <polygon fill="#475569" stroke="#475569" stroke-width="1.2"
                     points="251.26,-238.66 241.27,-235.12 246.87,-244.12 251.26,-238.66"/>
        </g>
        <!-- pagerank -->
        <g id="node8" class="node">
            <title>pagerank</title>
            <polygon fill="#f1f5f9" stroke="#475569" stroke-width="1.4"
                     points="280,-136 150,-136 150,-100 280,-100 280,-136"/>
            <text text-anchor="middle" x="215" y="-114.3" font-family="Helvetica,Arial,sans-serif" font-size="14.00">
                PageRank Solver
            </text>
        </g>
        <!-- db_csr&#45;&gt;pagerank -->
        <g id="edge8" class="edge">
            <title>db_csr&#45;&gt;pagerank</title>
            <path fill="none" stroke="#475569" stroke-width="1.2" d="M215,-190.9C215,-177.74 215,-160.68 215,-146.48"/>
            <polygon fill="#475569" stroke="#475569" stroke-width="1.2"
                     points="218.5,-146.28 215,-136.28 211.5,-146.28 218.5,-146.28"/>
        </g>
        <!-- rankings -->
        <g id="node9" class="node">
            <title>rankings</title>
            <polygon fill="#dcfce7" stroke="#16a34a" stroke-width="1.4"
                     points="289,-64 141,-64 141,-20 289,-20 289,-64"/>
            <text text-anchor="middle" x="215" y="-45.8" font-family="Helvetica,Arial,sans-serif" font-size="14.00">
                Ranked Functions
            </text>
            <text text-anchor="middle" x="215" y="-30.8" font-family="Helvetica,Arial,sans-serif" font-size="14.00">(top
                critical symbols)
            </text>
        </g>
        <!-- pagerank&#45;&gt;rankings -->
        <g id="edge9" class="edge">
            <title>pagerank&#45;&gt;rankings</title>
            <path fill="none" stroke="#475569" stroke-width="1.2" d="M215,-99.84C215,-92.16 215,-82.88 215,-74.05"/>
            <polygon fill="#475569" stroke="#475569" stroke-width="1.2"
                     points="218.5,-74.03 215,-64.03 211.5,-74.03 218.5,-74.03"/>
        </g>
    </g>
</svg>
