<?xml version="1.0" encoding="UTF-8" standalone="no"?>
<!DOCTYPE svg PUBLIC "-//W3C//DTD SVG 1.1//EN"
    "http://www.w3.org/Graphics/SVG/1.1/DTD/svg11.dtd">
<!-- Generated by graphviz version 2.43.0 (0)
 -->
<!-- Title: FraudDetection Pages: 1 -->
<svg width="415pt" height="462pt"
     viewBox="0.00 0.00 415.00 462.00" xmlns="http://www.w3.org/2000/svg">
    <g id="graph0" class="graph" transform="scale(1 1) rotate(0) translate(4 458)">
        <title>FraudDetection</title>
        <polygon fill="white" stroke="transparent" points="-4,4 -4,-458 411,-458 411,4 -4,4"/>
        <g id="clust1" class="cluster">
            <title>cluster_ingestion</title>
            <path fill="white" stroke="#2563eb" stroke-width="1.4"
                  d="M125,-239C125,-239 283,-239 283,-239 289,-239 295,-245 295,-251 295,-251 295,-390 295,-390 295,-396 289,-402 283,-402 283,-402 125,-402 125,-402 119,-402 113,-396 113,-390 113,-390 113,-251 113,-251 113,-245 119,-239 125,-239"/>
            <text text-anchor="middle" x="204" y="-386.8" font-family="Helvetica,Arial,sans-serif" font-size="14.00">1.
                Transaction Ingestion
            </text>
        </g>
        <g id="clust2" class="cluster">
            <title>cluster_detection</title>
            <path fill="white" stroke="#d97706" stroke-width="1.4"
                  d="M20,-68C20,-68 387,-68 387,-68 393,-68 399,-74 399,-80 399,-80 399,-219 399,-219 399,-225 393,-231 387,-231 387,-231 20,-231 20,-231 14,-231 8,-225 8,-219 8,-219 8,-80 8,-80 8,-74 14,-68 20,-68"/>
            <text text-anchor="middle" x="203.5" y="-215.8" font-family="Helvetica,Arial,sans-serif" font-size="14.00">
                2. Real&#45;Time Detection
            </text>
        </g>
        <!-- generator -->
        <g id="node1" class="node">
            <title>generator</title>
            <polygon fill="#dbeafe" stroke="#2563eb" stroke-width="1.4"
                     points="293,-454 115,-454 115,-410 293,-410 293,-454"/>
            <text text-anchor="middle" x="204" y="-435.8" font-family="Helvetica,Arial,sans-serif" font-size="14.00">
                Stream Generator
            </text>
            <text text-anchor="middle" x="204" y="-420.8" font-family="Helvetica,Arial,sans-serif" font-size="14.00">
                (accounts &amp; registrations)
            </text>
        </g>
        <!-- parse_evt -->
        <g id="node2" class="node">
            <title>parse_evt</title>
            <polygon fill="#f1f5f9" stroke="#475569" stroke-width="1.4"
                     points="277,-367 131,-367 131,-331 277,-331 277,-367"/>
            <text text-anchor="middle" x="204" y="-345.3" font-family="Helvetica,Arial,sans-serif" font-size="14.00">
                Parse Stream Event
            </text>
        </g>
        <!-- generator&#45;&gt;parse_evt -->
        <g id="edge1" class="edge">
            <title>generator&#45;&gt;parse_evt</title>
            <path fill="none" stroke="#475569" stroke-width="1.2" d="M204,-409.72C204,-399.73 204,-387.72 204,-377.1"/>
            <polygon fill="#475569" stroke="#475569" stroke-width="1.2"
                     points="207.5,-377.06 204,-367.06 200.5,-377.06 207.5,-377.06"/>
        </g>
        <!-- graph_insert -->
        <g id="node3" class="node">
            <title>graph_insert</title>
            <polygon fill="#dbeafe" stroke="#2563eb" stroke-width="1.4"
                     points="282.5,-295 125.5,-295 125.5,-251 282.5,-251 282.5,-295"/>
            <text text-anchor="middle" x="204" y="-276.8" font-family="Helvetica,Arial,sans-serif" font-size="14.00">
                Insert Nodes &amp; Edges
            </text>
            <text text-anchor="middle" x="204" y="-261.8" font-family="Helvetica,Arial,sans-serif" font-size="14.00">
                (IssunDB)
            </text>
        </g>
        <!-- parse_evt&#45;&gt;graph_insert -->
        <g id="edge2" class="edge">
            <title>parse_evt&#45;&gt;graph_insert</title>
            <path fill="none" stroke="#475569" stroke-width="1.2" d="M204,-330.84C204,-323.16 204,-313.88 204,-305.05"/>
            <polygon fill="#475569" stroke="#475569" stroke-width="1.2"
                     points="207.5,-305.03 204,-295.03 200.5,-305.03 207.5,-305.03"/>
        </g>
        <!-- cypher_queries -->
        <g id="node4" class="node">
            <title>cypher_queries</title>
            <polygon fill="#fef3c7" stroke="#d97706" stroke-width="1.4"
                     points="290,-196 118,-196 118,-152 290,-152 290,-196"/>
            <text text-anchor="middle" x="204" y="-177.8" font-family="Helvetica,Arial,sans-serif" font-size="14.00">
                Execute Cypher Queries
            </text>
            <text text-anchor="middle" x="204" y="-162.8" font-family="Helvetica,Arial,sans-serif" font-size="14.00">
                (concurrent checks)
            </text>
        </g>
        <!-- graph_insert&#45;&gt;cypher_queries -->
        <g id="edge3" class="edge">
            <title>graph_insert&#45;&gt;cypher_queries</title>
            <path fill="none" stroke="#475569" stroke-width="1.2" d="M204,-250.95C204,-237.86 204,-220.79 204,-206.15"/>
            <polygon fill="#475569" stroke="#475569" stroke-width="1.2"
                     points="207.5,-206.01 204,-196.01 200.5,-206.01 207.5,-206.01"/>
        </g>
        <!-- shared_devices -->
        <g id="node5" class="node">
            <title>shared_devices</title>
            <polygon fill="#f1f5f9" stroke="#475569" stroke-width="1.4"
                     points="194,-116 20,-116 20,-80 194,-80 194,-116"/>
            <text text-anchor="middle" x="107" y="-94.3" font-family="Helvetica,Arial,sans-serif" font-size="14.00">
                Shared Device Detection
            </text>
        </g>
        <!-- cypher_queries&#45;&gt;shared_devices -->
        <g id="edge4" class="edge">
            <title>cypher_queries&#45;&gt;shared_devices</title>
            <path fill="none" stroke="#475569" stroke-width="1.2"
                  d="M176.46,-151.99C164.36,-142.76 150.1,-131.88 137.65,-122.38"/>
            <polygon fill="#475569" stroke="#475569" stroke-width="1.2"
                     points="139.45,-119.36 129.38,-116.07 135.21,-124.92 139.45,-119.36"/>
        </g>
        <!-- circular_transfers -->
        <g id="node6" class="node">
            <title>circular_transfers</title>
            <polygon fill="#f1f5f9" stroke="#475569" stroke-width="1.4"
                     points="386.5,-116 223.5,-116 223.5,-80 386.5,-80 386.5,-116"/>
            <text text-anchor="middle" x="305" y="-94.3" font-family="Helvetica,Arial,sans-serif" font-size="14.00">
                Circular Transfer Rings
            </text>
        </g>
        <!-- cypher_queries&#45;&gt;circular_transfers -->
        <g id="edge5" class="edge">
            <title>cypher_queries&#45;&gt;circular_transfers</title>
            <path fill="none" stroke="#475569" stroke-width="1.2"
                  d="M232.67,-151.99C245.4,-142.67 260.41,-131.67 273.46,-122.11"/>
            <polygon fill="#475569" stroke="#475569" stroke-width="1.2"
                     points="275.7,-124.81 281.7,-116.07 271.56,-119.16 275.7,-124.81"/>
        </g>
        <!-- alerts -->
        <g id="node7" class="node">
            <title>alerts</title>
            <polygon fill="#fee2e2" stroke="#ef4444" stroke-width="1.4"
                     points="302.5,-44 109.5,-44 109.5,0 302.5,0 302.5,-44"/>
            <text text-anchor="middle" x="206" y="-25.8" font-family="Helvetica,Arial,sans-serif" font-size="14.00">
                Fraud Alerts
            </text>
            <text text-anchor="middle" x="206" y="-10.8" font-family="Helvetica,Arial,sans-serif" font-size="14.00">
                (suspicious entities marked)
            </text>
        </g>
        <!-- shared_devices&#45;&gt;alerts -->
        <g id="edge6" class="edge">
            <title>shared_devices&#45;&gt;alerts</title>
            <path fill="none" stroke="#475569" stroke-width="1.2"
                  d="M129.96,-79.84C141.79,-71 156.48,-60.01 169.79,-50.06"/>
            <polygon fill="#475569" stroke="#475569" stroke-width="1.2"
                     points="171.95,-52.82 177.86,-44.03 167.76,-47.22 171.95,-52.82"/>
        </g>
        <!-- circular_transfers&#45;&gt;alerts -->
        <g id="edge7" class="edge">
            <title>circular_transfers&#45;&gt;alerts</title>
            <path fill="none" stroke="#475569" stroke-width="1.2"
                  d="M282.04,-79.84C270.21,-71 255.52,-60.01 242.21,-50.06"/>
            <polygon fill="#475569" stroke="#475569" stroke-width="1.2"
                     points="244.24,-47.22 234.14,-44.03 240.05,-52.82 244.24,-47.22"/>
        </g>
    </g>
</svg>
