<?xml version="1.0" encoding="UTF-8" standalone="no"?>
<!DOCTYPE svg PUBLIC "-//W3C//DTD SVG 1.1//EN"
    "http://www.w3.org/Graphics/SVG/1.1/DTD/svg11.dtd">
<!-- Generated by graphviz version 2.43.0 (0)
 -->
<!-- Title: GraphRAGPipeline Pages: 1 -->
<svg width="606pt" height="916pt"
     viewBox="0.00 0.00 606.00 916.00" xmlns="http://www.w3.org/2000/svg">
    <g id="graph0" class="graph" transform="scale(1 1) rotate(0) translate(4 912)">
        <title>GraphRAGPipeline</title>
        <polygon fill="white" stroke="transparent" points="-4,4 -4,-912 602,-912 602,4 -4,4"/>
        <g id="clust1" class="cluster">
            <title>cluster_ingest</title>
            <path fill="white" stroke="#2563eb" stroke-width="1.4"
                  d="M20,-472C20,-472 297,-472 297,-472 303,-472 309,-478 309,-484 309,-484 309,-888 309,-888 309,-894 303,-900 297,-900 297,-900 20,-900 20,-900 14,-900 8,-894 8,-888 8,-888 8,-484 8,-484 8,-478 14,-472 20,-472"/>
            <text text-anchor="middle" x="158.5" y="-884.8" font-family="Helvetica,Arial,sans-serif" font-size="14.00">
                1. Ingestion Phase
            </text>
        </g>
        <g id="clust2" class="cluster">
            <title>cluster_ask</title>
            <path fill="white" stroke="#16a34a" stroke-width="1.4"
                  d="M329,-8C329,-8 578,-8 578,-8 584,-8 590,-14 590,-20 590,-20 590,-620 590,-620 590,-626 584,-632 578,-632 578,-632 329,-632 329,-632 323,-632 317,-626 317,-620 317,-620 317,-20 317,-20 317,-14 323,-8 329,-8"/>
            <text text-anchor="middle" x="453.5" y="-616.8" font-family="Helvetica,Arial,sans-serif" font-size="14.00">
                2. Query &amp; Retrieval Phase
            </text>
        </g>
        <!-- docs -->
        <g id="node1" class="node">
            <title>docs</title>
            <polygon fill="#dbeafe" stroke="#2563eb" stroke-width="1.4"
                     points="228,-865 88,-865 88,-821 228,-821 228,-865"/>
            <text text-anchor="middle" x="158" y="-846.8" font-family="Helvetica,Arial,sans-serif" font-size="14.00">
                Source Documents
            </text>
            <text text-anchor="middle" x="158" y="-831.8" font-family="Helvetica,Arial,sans-serif" font-size="14.00">
                (.md, .txt)
            </text>
        </g>
        <!-- chunks -->
        <g id="node2" class="node">
            <title>chunks</title>
            <polygon fill="#f1f5f9" stroke="#475569" stroke-width="1.4"
                     points="226,-784 90,-784 90,-740 226,-740 226,-784"/>
            <text text-anchor="middle" x="158" y="-765.8" font-family="Helvetica,Arial,sans-serif" font-size="14.00">
                Text Chunking
            </text>
            <text text-anchor="middle" x="158" y="-750.8" font-family="Helvetica,Arial,sans-serif" font-size="14.00">
                (Target ~400 char)
            </text>
        </g>
        <!-- docs&#45;&gt;chunks -->
        <g id="edge1" class="edge">
            <title>docs&#45;&gt;chunks</title>
            <path fill="none" stroke="#475569" stroke-width="1.2" d="M158,-820.83C158,-812.68 158,-803.2 158,-794.3"/>
            <polygon fill="#475569" stroke="#475569" stroke-width="1.2"
                     points="161.5,-794.23 158,-784.23 154.5,-794.23 161.5,-794.23"/>
        </g>
        <!-- ner -->
        <g id="node3" class="node">
            <title>ner</title>
            <polygon fill="#f1f5f9" stroke="#475569" stroke-width="1.4"
                     points="239.5,-703 76.5,-703 76.5,-659 239.5,-659 239.5,-703"/>
            <text text-anchor="middle" x="158" y="-684.8" font-family="Helvetica,Arial,sans-serif" font-size="14.00">
                Entity Extraction
            </text>
            <text text-anchor="middle" x="158" y="-669.8" font-family="Helvetica,Arial,sans-serif" font-size="14.00">
                (Capitalized word runs)
            </text>
        </g>
        <!-- chunks&#45;&gt;ner -->
        <g id="edge2" class="edge">
            <title>chunks&#45;&gt;ner</title>
            <path fill="none" stroke="#475569" stroke-width="1.2" d="M158,-739.83C158,-731.68 158,-722.2 158,-713.3"/>
            <polygon fill="#475569" stroke="#475569" stroke-width="1.2"
                     points="161.5,-713.23 158,-703.23 154.5,-713.23 161.5,-713.23"/>
        </g>
        <!-- write_db -->
        <g id="node4" class="node">
            <title>write_db</title>
            <polygon fill="#dbeafe" stroke="#2563eb" stroke-width="1.4"
                     points="222,-601 94,-601 94,-557 222,-557 222,-601"/>
            <text text-anchor="middle" x="158" y="-582.8" font-family="Helvetica,Arial,sans-serif" font-size="14.00">
                IssunDB Storage
            </text>
            <text text-anchor="middle" x="158" y="-567.8" font-family="Helvetica,Arial,sans-serif" font-size="14.00">
                (Nodes &amp; Edges)
            </text>
        </g>
        <!-- ner&#45;&gt;write_db -->
        <g id="edge3" class="edge">
            <title>ner&#45;&gt;write_db</title>
            <path fill="none" stroke="#475569" stroke-width="1.2" d="M158,-658.79C158,-645 158,-626.78 158,-611.34"/>
            <polygon fill="#475569" stroke="#475569" stroke-width="1.2"
                     points="161.5,-611.18 158,-601.18 154.5,-611.18 161.5,-611.18"/>
        </g>
        <!-- vector_index -->
        <g id="node5" class="node">
            <title>vector_index</title>
            <polygon fill="#f1f5f9" stroke="#475569" stroke-width="1.4"
                     points="138,-520 20,-520 20,-484 138,-484 138,-520"/>
            <text text-anchor="middle" x="79" y="-498.3" font-family="Helvetica,Arial,sans-serif" font-size="14.00">
                Vector Indexing
            </text>
        </g>
        <!-- write_db&#45;&gt;vector_index -->
        <g id="edge4" class="edge">
            <title>write_db&#45;&gt;vector_index</title>
            <path fill="none" stroke="#475569" stroke-width="1.2"
                  d="M135.57,-556.71C125.83,-547.46 114.37,-536.58 104.33,-527.04"/>
            <polygon fill="#475569" stroke="#475569" stroke-width="1.2"
                     points="106.63,-524.41 96.97,-520.06 101.81,-529.48 106.63,-524.41"/>
        </g>
        <!-- text_index -->
        <g id="node6" class="node">
            <title>text_index</title>
            <polygon fill="#f1f5f9" stroke="#475569" stroke-width="1.4"
                     points="297,-520 167,-520 167,-484 297,-484 297,-520"/>
            <text text-anchor="middle" x="232" y="-498.3" font-family="Helvetica,Arial,sans-serif" font-size="14.00">
                Full&#45;Text Indexing
            </text>
        </g>
        <!-- write_db&#45;&gt;text_index -->
        <g id="edge5" class="edge">
            <title>write_db&#45;&gt;text_index</title>
            <path fill="none" stroke="#475569" stroke-width="1.2"
                  d="M179.01,-556.71C188.04,-547.55 198.66,-536.8 208,-527.32"/>
            <polygon fill="#475569" stroke="#475569" stroke-width="1.2"
                     points="210.64,-529.64 215.17,-520.06 205.65,-524.72 210.64,-529.64"/>
        </g>
        <!-- hybrid_search -->
        <g id="node9" class="node">
            <title>hybrid_search</title>
            <polygon fill="#f1f5f9" stroke="#475569" stroke-width="1.4"
                     points="467,-445 343,-445 343,-401 467,-401 467,-445"/>
            <text text-anchor="middle" x="405" y="-426.8" font-family="Helvetica,Arial,sans-serif" font-size="14.00">
                Hybrid Search
            </text>
            <text text-anchor="middle" x="405" y="-411.8" font-family="Helvetica,Arial,sans-serif" font-size="14.00">
                (Vector + BM25)
            </text>
        </g>
        <!-- vector_index&#45;&gt;hybrid_search -->
        <g id="edge9" class="edge">
            <title>vector_index&#45;&gt;hybrid_search</title>
            <path fill="none" stroke="#475569" stroke-width="1.2" stroke-dasharray="5,2"
                  d="M118.47,-483.97C129.51,-479.64 141.6,-475.29 153,-472 216.65,-453.64 291.42,-440.41 342.89,-432.55"/>
        </g>
        <!-- text_index&#45;&gt;hybrid_search -->
        <g id="edge10" class="edge">
            <title>text_index&#45;&gt;hybrid_search</title>
            <path fill="none" stroke="#475569" stroke-width="1.2" stroke-dasharray="5,2"
                  d="M270.39,-483.91C296.18,-472.44 330.32,-457.24 357.77,-445.02"/>
        </g>
        <!-- query -->
        <g id="node7" class="node">
            <title>query</title>
            <polygon fill="#dcfce7" stroke="#16a34a" stroke-width="1.4"
                     points="515.5,-597 420.5,-597 420.5,-561 515.5,-561 515.5,-597"/>
            <text text-anchor="middle" x="468" y="-575.3" font-family="Helvetica,Arial,sans-serif" font-size="14.00">
                User Query
            </text>
        </g>
        <!-- embed_q -->
        <g id="node8" class="node">
            <title>embed_q</title>
            <polygon fill="#f1f5f9" stroke="#475569" stroke-width="1.4"
                     points="481,-520 329,-520 329,-484 481,-484 481,-520"/>
            <text text-anchor="middle" x="405" y="-498.3" font-family="Helvetica,Arial,sans-serif" font-size="14.00">
                Question Embedding
            </text>
        </g>
        <!-- query&#45;&gt;embed_q -->
        <g id="edge6" class="edge">
            <title>query&#45;&gt;embed_q</title>
            <path fill="none" stroke="#475569" stroke-width="1.2"
                  d="M453.7,-560.98C445.55,-551.27 435.17,-538.91 426.09,-528.1"/>
            <polygon fill="#475569" stroke="#475569" stroke-width="1.2"
                     points="428.57,-525.62 419.46,-520.21 423.21,-530.12 428.57,-525.62"/>
        </g>
        <!-- query&#45;&gt;hybrid_search -->
        <g id="edge8" class="edge">
            <title>query&#45;&gt;hybrid_search</title>
            <path fill="none" stroke="#475569" stroke-width="1.2"
                  d="M480.28,-560.69C494.24,-538.69 513.01,-500.2 496,-472 490.93,-463.6 483.85,-456.59 475.85,-450.77"/>
            <polygon fill="#475569" stroke="#475569" stroke-width="1.2"
                     points="477.52,-447.68 467.23,-445.12 473.68,-453.53 477.52,-447.68"/>
            <text text-anchor="middle" x="521.5" y="-499.5" font-family="Helvetica,Arial,sans-serif" font-size="10.00"
                  fill="#475569">raw text
            </text>
        </g>
        <!-- embed_q&#45;&gt;hybrid_search -->
        <g id="edge7" class="edge">
            <title>embed_q&#45;&gt;hybrid_search</title>
            <path fill="none" stroke="#475569" stroke-width="1.2" d="M405,-483.91C405,-475.52 405,-465.13 405,-455.38"/>
            <polygon fill="#475569" stroke="#475569" stroke-width="1.2"
                     points="408.5,-455.16 405,-445.16 401.5,-455.16 408.5,-455.16"/>
        </g>
        <!-- rrf -->
        <g id="node10" class="node">
            <title>rrf</title>
            <polygon fill="#f1f5f9" stroke="#475569" stroke-width="1.4"
                     points="497.5,-364 328.5,-364 328.5,-328 497.5,-328 497.5,-364"/>
            <text text-anchor="middle" x="413" y="-342.3" font-family="Helvetica,Arial,sans-serif" font-size="14.00">
                Reciprocal&#45;Rank Fusion
            </text>
        </g>
        <!-- hybrid_search&#45;&gt;rrf -->
        <g id="edge11" class="edge">
            <title>hybrid_search&#45;&gt;rrf</title>
            <path fill="none" stroke="#475569" stroke-width="1.2"
                  d="M407.27,-400.71C408.15,-392.46 409.17,-382.91 410.1,-374.17"/>
            <polygon fill="#475569" stroke="#475569" stroke-width="1.2"
                     points="413.6,-374.37 411.18,-364.06 406.64,-373.63 413.6,-374.37"/>
        </g>
        <!-- graph_expand -->
        <g id="node11" class="node">
            <title>graph_expand</title>
            <polygon fill="#f1f5f9" stroke="#475569" stroke-width="1.4"
                     points="489.5,-291 336.5,-291 336.5,-247 489.5,-247 489.5,-291"/>
            <text text-anchor="middle" x="413" y="-272.8" font-family="Helvetica,Arial,sans-serif" font-size="14.00">
                Graph Expansion
            </text>
            <text text-anchor="middle" x="413" y="-257.8" font-family="Helvetica,Arial,sans-serif" font-size="14.00">
                (Adj. Entities &amp; Docs)
            </text>
        </g>
        <!-- rrf&#45;&gt;graph_expand -->
        <g id="edge12" class="edge">
            <title>rrf&#45;&gt;graph_expand</title>
            <path fill="none" stroke="#475569" stroke-width="1.2" d="M413,-327.98C413,-320.15 413,-310.61 413,-301.54"/>
            <polygon fill="#475569" stroke="#475569" stroke-width="1.2"
                     points="416.5,-301.24 413,-291.24 409.5,-301.24 416.5,-301.24"/>
        </g>
        <!-- prompt -->
        <g id="node12" class="node">
            <title>prompt</title>
            <polygon fill="#f1f5f9" stroke="#475569" stroke-width="1.4"
                     points="488.5,-210 337.5,-210 337.5,-174 488.5,-174 488.5,-210"/>
            <text text-anchor="middle" x="413" y="-188.3" font-family="Helvetica,Arial,sans-serif" font-size="14.00">
                Context Construction
            </text>
        </g>
        <!-- graph_expand&#45;&gt;prompt -->
        <g id="edge13" class="edge">
            <title>graph_expand&#45;&gt;prompt</title>
            <path fill="none" stroke="#475569" stroke-width="1.2" d="M413,-246.71C413,-238.46 413,-228.91 413,-220.17"/>
            <polygon fill="#475569" stroke="#475569" stroke-width="1.2"
                     points="416.5,-220.06 413,-210.06 409.5,-220.06 416.5,-220.06"/>
        </g>
        <!-- llm -->
        <g id="node13" class="node">
            <title>llm</title>
            <polygon fill="#dcfce7" stroke="#16a34a" stroke-width="1.4"
                     points="488.5,-137 337.5,-137 337.5,-93 488.5,-93 488.5,-137"/>
            <text text-anchor="middle" x="413" y="-118.8" font-family="Helvetica,Arial,sans-serif" font-size="14.00">LLM
                Generation
            </text>
            <text text-anchor="middle" x="413" y="-103.8" font-family="Helvetica,Arial,sans-serif" font-size="14.00">
                (openai/gpt&#45;5.4&#45;mini)
            </text>
        </g>
        <!-- prompt&#45;&gt;llm -->
        <g id="edge14" class="edge">
            <title>prompt&#45;&gt;llm</title>
            <path fill="none" stroke="#475569" stroke-width="1.2" d="M413,-173.98C413,-166.15 413,-156.61 413,-147.54"/>
            <polygon fill="#475569" stroke="#475569" stroke-width="1.2"
                     points="416.5,-147.24 413,-137.24 409.5,-147.24 416.5,-147.24"/>
        </g>
        <!-- answer -->
        <g id="node14" class="node">
            <title>answer</title>
            <polygon fill="#dcfce7" stroke="#16a34a" stroke-width="1.4"
                     points="480,-56 346,-56 346,-20 480,-20 480,-56"/>
            <text text-anchor="middle" x="413" y="-34.3" font-family="Helvetica,Arial,sans-serif" font-size="14.00">
                Grounded Answer
            </text>
        </g>
        <!-- llm&#45;&gt;answer -->
        <g id="edge15" class="edge">
            <title>llm&#45;&gt;answer</title>
            <path fill="none" stroke="#475569" stroke-width="1.2" d="M413,-92.71C413,-84.46 413,-74.91 413,-66.17"/>
            <polygon fill="#475569" stroke="#475569" stroke-width="1.2"
                     points="416.5,-66.06 413,-56.06 409.5,-66.06 416.5,-66.06"/>
        </g>
    </g>
</svg>
