<?xml version="1.0" encoding="UTF-8" standalone="no"?>
<!DOCTYPE svg PUBLIC "-//W3C//DTD SVG 1.1//EN"
    "http://www.w3.org/Graphics/SVG/1.1/DTD/svg11.dtd">
<!-- Generated by graphviz version 2.43.0 (0)
 -->
<!-- Title: SocialRecommendation Pages: 1 -->
<svg width="414pt" height="513pt"
     viewBox="0.00 0.00 414.00 513.00" xmlns="http://www.w3.org/2000/svg">
    <g id="graph0" class="graph" transform="scale(1 1) rotate(0) translate(4 509)">
        <title>SocialRecommendation</title>
        <polygon fill="white" stroke="transparent" points="-4,4 -4,-509 410,-509 410,4 -4,4"/>
        <g id="clust1" class="cluster">
            <title>cluster_seeding</title>
            <path fill="white" stroke="#2563eb" stroke-width="1.4"
                  d="M140,-262C140,-262 304,-262 304,-262 310,-262 316,-268 316,-274 316,-274 316,-422 316,-422 316,-428 310,-434 304,-434 304,-434 140,-434 140,-434 134,-434 128,-428 128,-422 128,-422 128,-274 128,-274 128,-268 134,-262 140,-262"/>
            <text text-anchor="middle" x="222" y="-418.8" font-family="Helvetica,Arial,sans-serif" font-size="14.00">1.
                Graph &amp; Vector Seeding
            </text>
        </g>
        <g id="clust2" class="cluster">
            <title>cluster_recommendation</title>
            <path fill="white" stroke="#16a34a" stroke-width="1.4"
                  d="M20,-71C20,-71 386,-71 386,-71 392,-71 398,-77 398,-83 398,-83 398,-223 398,-223 398,-229 392,-235 386,-235 386,-235 20,-235 20,-235 14,-235 8,-229 8,-223 8,-223 8,-83 8,-83 8,-77 14,-71 20,-71"/>
            <text text-anchor="middle" x="203" y="-219.8" font-family="Helvetica,Arial,sans-serif" font-size="14.00">2.
                Hybrid Recommendation Engine
            </text>
        </g>
        <!-- data_sources -->
        <g id="node1" class="node">
            <title>data_sources</title>
            <polygon fill="#dbeafe" stroke="#2563eb" stroke-width="1.4"
                     points="291.5,-505 152.5,-505 152.5,-461 291.5,-461 291.5,-505"/>
            <text text-anchor="middle" x="222" y="-486.8" font-family="Helvetica,Arial,sans-serif" font-size="14.00">
                Seed Data
            </text>
            <text text-anchor="middle" x="222" y="-471.8" font-family="Helvetica,Arial,sans-serif" font-size="14.00">
                (users, posts, tags)
            </text>
        </g>
        <!-- embed_gen -->
        <g id="node2" class="node">
            <title>embed_gen</title>
            <polygon fill="#f1f5f9" stroke="#475569" stroke-width="1.4"
                     points="288.5,-399 155.5,-399 155.5,-355 288.5,-355 288.5,-399"/>
            <text text-anchor="middle" x="222" y="-380.8" font-family="Helvetica,Arial,sans-serif" font-size="14.00">
                Text Embeddings
            </text>
            <text text-anchor="middle" x="222" y="-365.8" font-family="Helvetica,Arial,sans-serif" font-size="14.00">
                (interests &amp; posts)
            </text>
        </g>
        <!-- data_sources&#45;&gt;embed_gen -->
        <g id="edge1" class="edge">
            <title>data_sources&#45;&gt;embed_gen</title>
            <path fill="none" stroke="#475569" stroke-width="1.2" d="M222,-460.95C222,-446.15 222,-426.09 222,-409.4"/>
            <polygon fill="#475569" stroke="#475569" stroke-width="1.2"
                     points="225.5,-409.01 222,-399.01 218.5,-409.01 225.5,-409.01"/>
        </g>
        <!-- graph_populate -->
        <g id="node3" class="node">
            <title>graph_populate</title>
            <polygon fill="#dbeafe" stroke="#2563eb" stroke-width="1.4"
                     points="303.5,-318 140.5,-318 140.5,-274 303.5,-274 303.5,-318"/>
            <text text-anchor="middle" x="222" y="-299.8" font-family="Helvetica,Arial,sans-serif" font-size="14.00">
                Populate Graph Nodes
            </text>
            <text text-anchor="middle" x="222" y="-284.8" font-family="Helvetica,Arial,sans-serif" font-size="14.00">
                &amp; Vector Properties
            </text>
        </g>
        <!-- embed_gen&#45;&gt;graph_populate -->
        <g id="edge2" class="edge">
            <title>embed_gen&#45;&gt;graph_populate</title>
            <path fill="none" stroke="#475569" stroke-width="1.2" d="M222,-354.83C222,-346.68 222,-337.2 222,-328.3"/>
            <polygon fill="#475569" stroke="#475569" stroke-width="1.2"
                     points="225.5,-328.23 222,-318.23 218.5,-328.23 225.5,-328.23"/>
        </g>
        <!-- collaborative -->
        <g id="node4" class="node">
            <title>collaborative</title>
            <polygon fill="#f1f5f9" stroke="#475569" stroke-width="1.4"
                     points="217.5,-200 20.5,-200 20.5,-156 217.5,-156 217.5,-200"/>
            <text text-anchor="middle" x="119" y="-181.8" font-family="Helvetica,Arial,sans-serif" font-size="14.00">
                Graph Collaborative Filtering
            </text>
            <text text-anchor="middle" x="119" y="-166.8" font-family="Helvetica,Arial,sans-serif" font-size="14.00">
                (friend&#45;of&#45;a&#45;friend traversal)
            </text>
        </g>
        <!-- graph_populate&#45;&gt;collaborative -->
        <g id="edge3" class="edge">
            <title>graph_populate&#45;&gt;collaborative</title>
            <path fill="none" stroke="#475569" stroke-width="1.2"
                  d="M200.52,-273.58C194.44,-267.36 187.87,-260.49 182,-254 168.55,-239.14 154.13,-222.07 142.48,-207.97"/>
            <polygon fill="#475569" stroke="#475569" stroke-width="1.2"
                     points="145.03,-205.55 135.97,-200.05 139.62,-210 145.03,-205.55"/>
            <text text-anchor="middle" x="216" y="-246" font-family="Helvetica,Arial,sans-serif" font-size="10.00"
                  fill="#475569">graph traversal
            </text>
        </g>
        <!-- semantic -->
        <g id="node5" class="node">
            <title>semantic</title>
            <polygon fill="#f1f5f9" stroke="#475569" stroke-width="1.4"
                     points="385.5,-200 246.5,-200 246.5,-156 385.5,-156 385.5,-200"/>
            <text text-anchor="middle" x="316" y="-181.8" font-family="Helvetica,Arial,sans-serif" font-size="14.00">
                Semantic Retrieval
            </text>
            <text text-anchor="middle" x="316" y="-166.8" font-family="Helvetica,Arial,sans-serif" font-size="14.00">
                (vector search)
            </text>
        </g>
        <!-- graph_populate&#45;&gt;semantic -->
        <g id="edge4" class="edge">
            <title>graph_populate&#45;&gt;semantic</title>
            <path fill="none" stroke="#475569" stroke-width="1.2"
                  d="M239.02,-273.99C253.97,-255.55 275.86,-228.54 292.48,-208.03"/>
            <polygon fill="#475569" stroke="#475569" stroke-width="1.2"
                     points="295.21,-210.22 298.79,-200.24 289.77,-205.81 295.21,-210.22"/>
            <text text-anchor="middle" x="295" y="-246" font-family="Helvetica,Arial,sans-serif" font-size="10.00"
                  fill="#475569">vector queries
            </text>
        </g>
        <!-- hybrid_fuse -->
        <g id="node6" class="node">
            <title>hybrid_fuse</title>
            <polygon fill="#f1f5f9" stroke="#475569" stroke-width="1.4"
                     points="295,-119 125,-119 125,-83 295,-83 295,-119"/>
            <text text-anchor="middle" x="210" y="-97.3" font-family="Helvetica,Arial,sans-serif" font-size="14.00">
                Hybrid Fusion &amp; Scoring
            </text>
        </g>
        <!-- collaborative&#45;&gt;hybrid_fuse -->
        <g id="edge5" class="edge">
            <title>collaborative&#45;&gt;hybrid_fuse</title>
            <path fill="none" stroke="#475569" stroke-width="1.2"
                  d="M144.83,-155.71C156.28,-146.28 169.77,-135.15 181.51,-125.48"/>
            <polygon fill="#475569" stroke="#475569" stroke-width="1.2"
                     points="183.81,-128.12 189.3,-119.06 179.36,-122.72 183.81,-128.12"/>
        </g>
        <!-- semantic&#45;&gt;hybrid_fuse -->
        <g id="edge6" class="edge">
            <title>semantic&#45;&gt;hybrid_fuse</title>
            <path fill="none" stroke="#475569" stroke-width="1.2"
                  d="M286.19,-155.91C272.6,-146.29 256.48,-134.88 242.57,-125.04"/>
            <polygon fill="#475569" stroke="#475569" stroke-width="1.2"
                     points="244.42,-122.07 234.24,-119.15 240.38,-127.78 244.42,-122.07"/>
        </g>
        <!-- outputs -->
        <g id="node7" class="node">
            <title>outputs</title>
            <polygon fill="#dcfce7" stroke="#16a34a" stroke-width="1.4" points="293,-44 127,-44 127,0 293,0 293,-44"/>
            <text text-anchor="middle" x="210" y="-25.8" font-family="Helvetica,Arial,sans-serif" font-size="14.00">
                Recommended Friends
            </text>
            <text text-anchor="middle" x="210" y="-10.8" font-family="Helvetica,Arial,sans-serif" font-size="14.00">
                &amp; Relevant Articles
            </text>
        </g>
        <!-- hybrid_fuse&#45;&gt;outputs -->
        <g id="edge7" class="edge">
            <title>hybrid_fuse&#45;&gt;outputs</title>
            <path fill="none" stroke="#475569" stroke-width="1.2" d="M210,-82.91C210,-74.52 210,-64.13 210,-54.38"/>
            <polygon fill="#475569" stroke="#475569" stroke-width="1.2"
                     points="213.5,-54.16 210,-44.16 206.5,-54.16 213.5,-54.16"/>
        </g>
    </g>
</svg>
